# xmcd CD database file
#
# Track frame offsets:
#	150
#	15220
#	36150
#	57362
#	74027
#	94927
#	119122
#	137455
#	157730
#	179312
#	196990
#	218535
#	237305
#	255955
#
# Disc length: 3648 seconds
#
# Revision: 5
# Processed by: cddbd v1.5PL3 Copyright (c) Steve Scherf et al.
# Submitted via: CDex 1.50Beta7
#
DISCID=ba0e3e0e
DTITLE=Various Artist - 2001大韓民國
DYEAR=2001
DGENRE=Hip-Hop
TTITLE0=Foxy, T'ache, MC haNsAi, Rapgas, Skul1, Yesol, Bobby Kim, Juvie, DJ.Wreckx, Yuri &3534 - NO.1
TTITLE1=3534 feat. JoPD - V.I.P.
TTITLE2=Daggaz feat. Side-B - RUN and RUN
TTITLE3=Buga Kingz feat. Gun-D and Garuda - Some of Dis
TTITLE4=K-Ryders and K.O.D feat. DJ.Smood - Saint
TTITLE5=Ill Skillz feat. DJ.Soulscape - Aradeuleo
TTITLE6=Yo-Han fat. Yvette - Jeoju e i
TTITLE7=Joosuc feat. DJ.Wreckx - 大逆轉
TTITLE8=sean2slow feat. Illogic Wisdom - Moment of truth
TTITLE9=Yuri feat. B.R. - Just wanna be with you
TTITLE10=45rpm feat. Boltrix - Borit Gogae
TTITLE11=RappaHolik feat. Steady-B - Code Name - Gotti
TTITLE12=RAPGAS feat. MC haNsAi - Hanjum e Zoom
TTITLE13=X-tash feat. Niddle - Circus
EXTD=YEAR: 2001
EXTT0=
EXTT1=
EXTT2=
EXTT3=
EXTT4=
EXTT5=
EXTT6=
EXTT7=
EXTT8=
EXTT9=
EXTT10=
EXTT11=
EXTT12=
EXTT13=
PLAYORDER=
